<svg width="178pt" height="101pt" viewBox="0 0 180 103" xmlns="http://www.w3.org/2000/svg"><g id="fontsvg1706925308211" stroke-linecap="round" fill-rule="evenodd" fill="#4c82f1"><path d="M 3.223 5.2 L 15.967 0.879 Q 22.559 1.978 29.81 5.2 L 40.43 41.309 Q 41.162 48.413 43.652 55.151 Q 44.678 61.011 48.999 65.845 L 46.802 58.374 L 47.9 55.151 L 50.024 40.283 L 57.495 14.722 A 14.343 14.343 0 0 1 62.36 5.338 A 19.827 19.827 0 0 1 63.867 4.102 L 70.239 0.879 L 74.561 4.102 A 37.774 37.774 0 0 1 80.93 2.554 A 51.17 51.17 0 0 1 87.305 1.978 L 90.454 8.35 L 87.305 12.598 A 73.887 73.887 0 0 0 85.336 19.364 A 96.328 96.328 0 0 0 84.082 25.415 L 71.338 61.523 A 53.707 53.707 0 0 0 68.115 72.217 L 64.893 82.837 A 74.682 74.682 0 0 1 62.106 91.938 A 87.403 87.403 0 0 1 60.645 95.581 A 31.095 31.095 0 0 1 50.024 99.829 L 34.058 100.928 A 33.382 33.382 0 0 1 30.373 96.193 A 44.9 44.9 0 0 1 27.686 91.406 L 19.189 65.845 A 47.653 47.653 0 0 1 15.66 56.465 A 55.998 55.998 0 0 1 14.868 53.027 Q 12.994 48.125 9.629 42.583 A 89.576 89.576 0 0 0 9.521 42.407 A 68.897 68.897 0 0 0 7.687 33 A 82.476 82.476 0 0 0 6.372 28.564 L 0 7.324 L 3.223 5.2 Z M 91.113 2.197 L 94.409 0 L 109.57 1.099 L 117.114 0 L 119.238 1.099 L 122.534 2.197 L 133.301 1.099 L 136.597 2.197 L 150.659 1.099 L 162.598 6.519 L 171.167 12.964 A 87.696 87.696 0 0 1 173.419 18.567 A 114.235 114.235 0 0 1 175.488 24.829 L 176.66 35.669 L 171.167 50.83 Q 167.065 54.199 161.426 57.349 L 159.302 60.571 L 170.142 75.732 L 175.488 86.499 A 29.323 29.323 0 0 1 176.63 89.92 Q 177.113 91.704 177.465 93.749 A 52.751 52.751 0 0 1 177.686 95.142 L 174.463 97.266 L 161.426 98.364 A 56.864 56.864 0 0 1 150.997 96.873 A 64.851 64.851 0 0 1 148.535 96.24 L 140.918 86.499 L 135.498 76.758 A 57.34 57.34 0 0 0 133.446 70.228 A 74.033 74.033 0 0 0 131.177 64.893 L 124.731 63.794 L 122.534 64.893 Q 121.436 65.186 120.41 67.017 L 121.436 79.98 L 120.41 83.276 L 122.534 91.919 A 30.453 30.453 0 0 1 117.9 96.591 A 39.802 39.802 0 0 1 113.892 99.463 L 100.928 100.562 A 43.553 43.553 0 0 1 94.725 96.276 A 54.087 54.087 0 0 1 91.113 93.018 L 92.285 83.276 L 91.113 79.98 L 90.088 69.214 L 91.113 65.991 L 92.285 52.954 L 92.285 36.768 L 91.113 33.545 L 92.285 23.804 L 91.113 14.063 L 93.311 10.84 L 91.113 2.197 Z M 117.114 32.446 L 120.41 40.063 A 5.866 5.866 0 0 0 122.805 42.838 A 7.879 7.879 0 0 0 123.633 43.286 L 140.918 41.089 L 148.535 37.866 A 25.281 25.281 0 0 0 145.058 29.791 A 31.298 31.298 0 0 0 143.042 27.026 A 61.253 61.253 0 0 0 133.231 24.222 Q 127.758 23.114 121.436 22.705 A 58.517 58.517 0 0 1 118.774 29.202 A 70.272 70.272 0 0 1 117.114 32.446 Z M 163.623 32.446 L 159.302 32.446 L 156.079 36.768 L 161.426 43.286 L 163.623 32.446 Z M 116.016 54.126 L 110.669 50.83 Q 107.666 53.32 107.373 57.349 Q 111.05 55.618 115.863 54.172 A 84.734 84.734 0 0 1 116.016 54.126 Z M 70.239 24.316 L 69.214 23.218 Q 66.431 25.488 64.893 29.59 L 70.239 29.59 L 70.239 24.316 Z M 108.472 17.285 L 103.052 12.964 L 100.928 17.285 L 108.472 17.285 Z M 26.587 54.126 A 22.713 22.713 0 0 0 30.969 56.804 A 30.359 30.359 0 0 0 35.083 58.374 A 22.962 22.962 0 0 0 29.855 55.296 A 29.082 29.082 0 0 0 26.587 54.126 Z M 52.148 86.06 L 46.802 86.06 L 48.999 90.234 L 52.148 86.06 Z M 104.15 29.224 A 10.661 10.661 0 0 0 107.886 32.726 A 13.908 13.908 0 0 0 109.57 33.545 Q 108.032 30.615 104.15 29.224 Z M 149.561 49.731 L 154.98 52.954 A 8.606 8.606 0 0 0 151.435 50.322 A 11.76 11.76 0 0 0 149.561 49.731 Z M 152.783 18.384 L 150.659 17.285 L 151.758 22.705 L 152.783 18.384 Z M 103.052 43.286 A 10.951 10.951 0 0 0 105.26 46.591 A 13.621 13.621 0 0 0 106.348 47.607 A 5.861 5.861 0 0 0 103.828 43.77 A 8.415 8.415 0 0 0 103.052 43.286 Z M 57.495 72.217 L 53.174 70.02 A 6.119 6.119 0 0 0 57.413 72.21 A 7.6 7.6 0 0 0 57.495 72.217 Z M 111.694 67.017 L 107.373 64.893 Q 109.204 66.797 111.694 67.017 Z M 62.842 52.002 L 60.645 50.903 L 61.743 54.126 L 62.842 52.002 Z M 74.561 16.846 L 73.389 19.043 L 75.586 19.043 L 75.586 16.846 L 74.561 16.846 Z M 22.339 52.002 L 25.562 54.126 Q 24.797 52.787 22.922 52.17 A 8.296 8.296 0 0 0 22.339 52.002 Z M 157.104 22.705 L 156.079 24.829 L 158.203 24.829 L 158.203 22.705 L 157.104 22.705 Z M 38.306 67.969 L 37.28 67.969 L 38.306 71.191 L 38.306 67.969 Z M 106.348 70.239 L 104.15 69.214 L 104.15 71.411 L 106.348 70.239 Z M 118.978 10.724 A 5.962 5.962 0 0 0 119.238 10.84 A 2.28 2.28 0 0 0 118.286 9.309 Q 117.932 9.046 117.45 8.844 A 5.652 5.652 0 0 0 117.114 8.716 Q 117.453 10.001 118.978 10.724 Z M 104.15 73.535 L 105.176 75.732 L 105.176 73.535 L 104.15 73.535 Z" vector-effect="non-scaling-stroke"/></g></svg>